<svg xmlns="http://www.w3.org/2000/svg" viewBox="0 0 100 100" fill-rule="evenodd"><rect x="0" y="0" width="100" height="100" fill="#4c5293" rx="50" ry="50"></rect><g class="t-group-origins" style="transform-origin:center;transform:scale(0.3);"><path d="M87.923 20.498a1.492 1.492 0 0 0-1.284-.276l-36.406 8.941-36.413-8.941a1.5 1.5 0 0 0-1.858 1.456v56.893a1.5 1.5 0 0 0 1.143 1.457l36.771 9.021a1.496 1.496 0 0 0 .714 0l36.764-9.022a1.5 1.5 0 0 0 1.143-1.457V21.677a1.5 1.5 0 0 0-.574-1.179zm-72.961 3.093 33.771 8.292V85.68l-33.771-8.286V23.591zm70.535 53.803L51.733 85.68V31.883l33.764-8.292v53.803z" stroke-width="1" stroke="#ffffff" fill="#ffffff" stroke-width-old="0"></path><path d="m17.359 15.077 32.517 7.975c.118.029.236.042.351.043l.005.001h.002l.005-.001c.116-.001.234-.014.351-.043l32.508-7.975a1.5 1.5 0 0 0-.714-2.914L50.233 20.05l-32.16-7.887a1.5 1.5 0 1 0-.714 2.914z" stroke-width="1" stroke="#ffffff" fill="#ffffff" stroke-width-old="0"></path></g></svg>
