<svg xmlns="http://www.w3.org/2000/svg" viewBox="0 0 100 100" fill-rule="evenodd"><rect x="0" y="0" width="100" height="100" fill="#ff0000" rx="50" ry="50"></rect><g class="t-group-origins" style="transform-origin:center;transform:scale(0.4);"><path d="m69.817 48.243-30-19.5a1.503 1.503 0 0 0-1.533-.061A1.503 1.503 0 0 0 37.499 30v39a1.498 1.498 0 0 0 2.317 1.258l30-19.5a1.499 1.499 0 0 0 .001-2.515zM40.5 66.237V32.764L66.248 49.5 40.5 66.237z" stroke-width="0" stroke="#ffffff" fill="#ffffff" stroke-width-old="0"></path><path d="M49.5 6.5c-23.71 0-43 19.29-43 43s19.29 43 43 43 43-19.29 43-43-19.29-43-43-43zm0 83c-22.056 0-40-17.944-40-40s17.944-40 40-40 40 17.944 40 40-17.944 40-40 40z" stroke-width="0" stroke="#ffffff" fill="#ffffff" stroke-width-old="0"></path></g></svg>
